<svg width="80" height="30" viewBox="0 0 80 30" fill="none" xmlns="http://www.w3.org/2000/svg">
<rect width="80" height="30" rx="15" fill="white"/>
<path d="M12.434 12.552C12.434 11.768 12.6347 11.1613 13.036 10.732C13.4373 10.3027 14.016 10.088 14.772 10.088C15.528 10.088 16.1067 10.3027 16.508 10.732C16.9093 11.1613 17.11 11.768 17.11 12.552V17.648C17.11 18.1987 17.012 18.656 16.816 19.02C16.8533 19.104 16.9 19.16 16.956 19.188C17.0213 19.216 17.1193 19.23 17.25 19.23H17.39V20.602H17.18C16.5173 20.602 16.074 20.378 15.85 19.93C15.514 20.0513 15.1547 20.112 14.772 20.112C14.016 20.112 13.4373 19.8973 13.036 19.468C12.6347 19.0387 12.434 18.432 12.434 17.648V12.552ZM13.974 17.746C13.974 18.39 14.24 18.712 14.772 18.712C15.304 18.712 15.57 18.39 15.57 17.746V12.454C15.57 11.81 15.304 11.488 14.772 11.488C14.24 11.488 13.974 11.81 13.974 12.454V17.746ZM19.0628 11.432C19.4361 11.432 19.7301 11.3807 19.9448 11.278C20.1688 11.166 20.3321 11.026 20.4348 10.858C20.5468 10.69 20.6541 10.4707 20.7568 10.2H21.7928V20H20.2528V12.524H19.0628V11.432ZM28.8874 12.608C28.8874 12.188 28.8174 11.8987 28.6774 11.74C28.5467 11.572 28.3507 11.488 28.0894 11.488C27.5574 11.488 27.2914 11.81 27.2914 12.454V13.504H25.8354V12.552C25.8354 11.7587 26.0314 11.152 26.4234 10.732C26.8154 10.3027 27.3847 10.088 28.1314 10.088C28.8781 10.088 29.4474 10.3027 29.8394 10.732C30.2314 11.152 30.4274 11.7587 30.4274 12.552C30.4274 13.1027 30.3341 13.6113 30.1474 14.078C29.9701 14.5353 29.7554 14.932 29.5034 15.268C29.2514 15.604 28.9247 15.9913 28.5234 16.43C28.1221 16.878 27.8281 17.242 27.6414 17.522C27.4547 17.802 27.3614 18.0913 27.3614 18.39C27.3614 18.4833 27.3661 18.5533 27.3754 18.6H30.2874V20H25.8354V18.796C25.8354 18.3387 25.9054 17.9327 26.0454 17.578C26.1854 17.214 26.3581 16.8967 26.5634 16.626C26.7687 16.3553 27.0394 16.038 27.3754 15.674C27.7207 15.2913 27.9914 14.974 28.1874 14.722C28.3834 14.4607 28.5467 14.1527 28.6774 13.798C28.8174 13.4433 28.8874 13.0467 28.8874 12.608ZM31.2602 12.552C31.2602 11.768 31.4608 11.1613 31.8622 10.732C32.2635 10.3027 32.8422 10.088 33.5982 10.088C34.3542 10.088 34.9328 10.3027 35.3342 10.732C35.7355 11.1613 35.9362 11.768 35.9362 12.552V17.648C35.9362 18.432 35.7355 19.0387 35.3342 19.468C34.9328 19.8973 34.3542 20.112 33.5982 20.112C32.8422 20.112 32.2635 19.8973 31.8622 19.468C31.4608 19.0387 31.2602 18.432 31.2602 17.648V12.552ZM32.8002 17.746C32.8002 18.39 33.0662 18.712 33.5982 18.712C34.1302 18.712 34.3962 18.39 34.3962 17.746V12.454C34.3962 11.81 34.1302 11.488 33.5982 11.488C33.0662 11.488 32.8002 11.81 32.8002 12.454V17.746ZM39.989 12.608C39.989 12.188 39.919 11.8987 39.779 11.74C39.6483 11.572 39.4523 11.488 39.191 11.488C38.659 11.488 38.393 11.81 38.393 12.454V13.504H36.937V12.552C36.937 11.7587 37.133 11.152 37.525 10.732C37.917 10.3027 38.4863 10.088 39.233 10.088C39.9796 10.088 40.549 10.3027 40.941 10.732C41.333 11.152 41.529 11.7587 41.529 12.552C41.529 13.1027 41.4356 13.6113 41.249 14.078C41.0716 14.5353 40.857 14.932 40.605 15.268C40.353 15.604 40.0263 15.9913 39.625 16.43C39.2236 16.878 38.9296 17.242 38.743 17.522C38.5563 17.802 38.463 18.0913 38.463 18.39C38.463 18.4833 38.4676 18.5533 38.477 18.6H41.389V20H36.937V18.796C36.937 18.3387 37.007 17.9327 37.147 17.578C37.287 17.214 37.4596 16.8967 37.665 16.626C37.8703 16.3553 38.141 16.038 38.477 15.674C38.8223 15.2913 39.093 14.974 39.289 14.722C39.485 14.4607 39.6483 14.1527 39.779 13.798C39.919 13.4433 39.989 13.0467 39.989 12.608ZM45.5397 12.608C45.5397 12.188 45.4697 11.8987 45.3297 11.74C45.1991 11.572 45.0031 11.488 44.7417 11.488C44.2097 11.488 43.9437 11.81 43.9437 12.454V13.504H42.4877V12.552C42.4877 11.7587 42.6837 11.152 43.0757 10.732C43.4677 10.3027 44.0371 10.088 44.7837 10.088C45.5304 10.088 46.0997 10.3027 46.4917 10.732C46.8837 11.152 47.0797 11.7587 47.0797 12.552C47.0797 13.1027 46.9864 13.6113 46.7997 14.078C46.6224 14.5353 46.4077 14.932 46.1557 15.268C45.9037 15.604 45.5771 15.9913 45.1757 16.43C44.7744 16.878 44.4804 17.242 44.2937 17.522C44.1071 17.802 44.0137 18.0913 44.0137 18.39C44.0137 18.4833 44.0184 18.5533 44.0277 18.6H46.9397V20H42.4877V18.796C42.4877 18.3387 42.5577 17.9327 42.6977 17.578C42.8377 17.214 43.0104 16.8967 43.2157 16.626C43.4211 16.3553 43.6917 16.038 44.0277 15.674C44.3731 15.2913 44.6437 14.974 44.8397 14.722C45.0357 14.4607 45.1991 14.1527 45.3297 13.798C45.4697 13.4433 45.5397 13.0467 45.5397 12.608Z" fill="#171719"/>
<g filter="url(#filter0_dd_194_14)">
<circle cx="62" cy="15" r="6" fill="white"/>
</g>
<circle cx="62" cy="15" r="3" fill="#E75626"/>
<defs>
<filter id="filter0_dd_194_14" x="48" y="1" width="28" height="28" filterUnits="userSpaceOnUse" color-interpolation-filters="sRGB">
<feFlood flood-opacity="0" result="BackgroundImageFix"/>
<feColorMatrix in="SourceAlpha" type="matrix" values="0 0 0 0 0 0 0 0 0 0 0 0 0 0 0 0 0 0 127 0" result="hardAlpha"/>
<feOffset dx="2" dy="2"/>
<feGaussianBlur stdDeviation="3"/>
<feComposite in2="hardAlpha" operator="out"/>
<feColorMatrix type="matrix" values="0 0 0 0 0.195833 0 0 0 0 0.195833 0 0 0 0 0.195833 0 0 0 0.25 0"/>
<feBlend mode="normal" in2="BackgroundImageFix" result="effect1_dropShadow_194_14"/>
<feColorMatrix in="SourceAlpha" type="matrix" values="0 0 0 0 0 0 0 0 0 0 0 0 0 0 0 0 0 0 127 0" result="hardAlpha"/>
<feOffset dx="-2" dy="-2"/>
<feGaussianBlur stdDeviation="3"/>
<feComposite in2="hardAlpha" operator="out"/>
<feColorMatrix type="matrix" values="0 0 0 0 0.196078 0 0 0 0 0.196078 0 0 0 0 0.196078 0 0 0 0.25 0"/>
<feBlend mode="normal" in2="effect1_dropShadow_194_14" result="effect2_dropShadow_194_14"/>
<feBlend mode="normal" in="SourceGraphic" in2="effect2_dropShadow_194_14" result="shape"/>
</filter>
</defs>
</svg>
